<svg id="visual" viewBox="0 0 1500 600" width="1500" height="600" xmlns="http://www.w3.org/2000/svg" xmlns:xlink="http://www.w3.org/1999/xlink" version="1.1"><path d="M0 392L35.7 390.7C71.3 389.3 142.7 386.7 214.2 396.5C285.7 406.3 357.3 428.7 428.8 449C500.3 469.3 571.7 487.7 643 491.2C714.3 494.7 785.7 483.3 857 471.8C928.3 460.3 999.7 448.7 1071.2 442.8C1142.7 437 1214.3 437 1285.8 440.2C1357.3 443.3 1428.7 449.7 1464.3 452.8L1500 456L1500 601L1464.3 601C1428.7 601 1357.3 601 1285.8 601C1214.3 601 1142.7 601 1071.2 601C999.7 601 928.3 601 857 601C785.7 601 714.3 601 643 601C571.7 601 500.3 601 428.8 601C357.3 601 285.7 601 214.2 601C142.7 601 71.3 601 35.7 601L0 601Z" fill="#1a3059" stroke-linecap="round" stroke-linejoin="miter"></path></svg>