<svg id="visual" viewBox="0 0 1500 800" width="1500" height="800" xmlns="http://www.w3.org/2000/svg" xmlns:xlink="http://www.w3.org/1999/xlink" version="1.1"><rect x="0" y="0" width="1500" height="800" fill="#494d86"></rect><defs><linearGradient id="grad1_0" x1="46.7%" y1="0%" x2="100%" y2="100%"><stop offset="12.5%" stop-color="#28325e" stop-opacity="1"></stop><stop offset="87.5%" stop-color="#28325e" stop-opacity="1"></stop></linearGradient></defs><defs><linearGradient id="grad1_1" x1="46.7%" y1="0%" x2="100%" y2="100%"><stop offset="12.5%" stop-color="#28325e" stop-opacity="1"></stop><stop offset="87.5%" stop-color="#494d86" stop-opacity="1"></stop></linearGradient></defs><defs><linearGradient id="grad2_0" x1="0%" y1="0%" x2="53.3%" y2="100%"><stop offset="12.5%" stop-color="#28325e" stop-opacity="1"></stop><stop offset="87.5%" stop-color="#28325e" stop-opacity="1"></stop></linearGradient></defs><defs><linearGradient id="grad2_1" x1="0%" y1="0%" x2="53.3%" y2="100%"><stop offset="12.5%" stop-color="#494d86" stop-opacity="1"></stop><stop offset="87.5%" stop-color="#28325e" stop-opacity="1"></stop></linearGradient></defs><g transform="translate(1500, 0)"><path d="M0 600C-52.5 531.4 -105 462.7 -184.1 444.4C-263.1 426 -368.7 457.9 -424.3 424.3C-479.8 390.6 -485.3 291.4 -506.3 209.7C-527.2 128.1 -563.6 64 -600 0L0 0Z" fill="#383f72"></path><path d="M0 300C-26.3 265.7 -52.5 231.4 -92 222.2C-131.6 213 -184.4 229 -212.1 212.1C-239.9 195.3 -242.7 145.7 -253.1 104.9C-263.6 64 -281.8 32 -300 0L0 0Z" fill="#28325e"></path></g><g transform="translate(0, 800)"><path d="M0 -600C81.9 -597 163.8 -594 229.6 -554.3C295.4 -514.6 345 -438.2 368.4 -368.4C391.8 -298.6 388.9 -235.6 423.1 -175.3C457.4 -115 528.7 -57.5 600 0L0 0Z" fill="#383f72"></path><path d="M0 -300C41 -298.5 81.9 -297 114.8 -277.2C147.7 -257.3 172.5 -219.1 184.2 -184.2C195.9 -149.3 194.5 -117.8 211.6 -87.6C228.7 -57.5 264.3 -28.7 300 0L0 0Z" fill="#28325e"></path></g></svg>